<?xml version="1.0" encoding="utf-8"?>
<!-- Generator: Adobe Illustrator 27.4.0, SVG Export Plug-In . SVG Version: 6.00 Build 0)  -->
<svg version="1.1" id="Layer_1" xmlns="http://www.w3.org/2000/svg" xmlns:xlink="http://www.w3.org/1999/xlink" x="0px" y="0px"
	 viewBox="0 0 193.3 138.5" style="enable-background:new 0 0 193.3 138.5;" xml:space="preserve">
<style type="text/css">
	.st0{fill:#287EB1;}
	.st1{display:none;fill:none;}
	.st2{fill:#E6E7E8;stroke:#231F20;stroke-width:0.5;stroke-linecap:round;stroke-miterlimit:10;}
	.st3{clip-path:url(#SVGID_00000158739894334355186680000007743171909160159385_);}
	.st4{fill:#EB5F25;}
	.st5{clip-path:url(#SVGID_00000145766309210861944330000006787560172318997145_);}
	.st6{fill:#E6E7E8;}
</style>
<g id="Circle">
	<path class="st0" d="M104.3,7.2C68,7.2,38.6,36.6,38.6,72.9s29.4,65.7,65.7,65.7s65.7-29.4,65.7-65.7
		C169.9,36.6,140.5,7.2,104.3,7.2z M104.3,127.7c-30.3,0-54.8-24.5-54.8-54.8S74,18,104.3,18c30.3,0,54.8,24.5,54.8,54.8
		S134.6,127.7,104.3,127.7z"/>
	<polyline class="st1" points="209.1,-2.2 105,-2.2 105,76.6 	"/>
</g>
<g id="Hat">
	<path class="st0" d="M103.5,0l90.4,22.7L156,32c0,0-10-10-21-15.2s-17.2-8.1-31.6-8.1s-19.1,2.9-30,8.1S52.5,32,52.5,32L40,29.9
		c0,0-12.9,10.8-17.9,19S11.3,72.1,11.3,72.1l0.5,5.5H0L4.5,72c0,0,5.7-16.8,14.7-28.9s12.7-13.2,15.1-15.4c2.4-2.2-19.7-5-19.7-5
		L103.5,0z"/>
	<path class="st2" d="M113,32.7"/>
</g>
<g id="BothKiwiOrange">
	<g id="_x3C_Mirror_Repeat_x3E__00000165928601543541316320000011146967958135579779_">
		<g>
			<g>
				<defs>
					<rect id="SVGID_1_" x="16.7" y="73.4" width="75.7" height="50.2"/>
				</defs>
				<clipPath id="SVGID_00000142865309160266873400000004986838036791303303_">
					<use xlink:href="#SVGID_1_"  style="overflow:visible;"/>
				</clipPath>
				
					<g id="_x3C_Mirror_Repeat_x3E__00000001638221155790920630000012501516241095523731_" style="clip-path:url(#SVGID_00000142865309160266873400000004986838036791303303_);">
					<g>
						<path class="st4" d="M79.3,123.7c0,0-19.4-14.5-19.8-15.9s4.6-11.3,4.6-11.3s-6.9-3.9-9.1-5.1s-4.6-4.9-4.6-4.9
							s0.9-2.3-11.6-2S16.7,89,16.7,89s13.7-7.4,23.4-7c2.9,0.1,9.3,0.3,11.9-1.6c5.5-4.1,11.5-6.9,15.8-6.9c6.1,0,9.8,6.5,9.8,6.5
							l14.8,17.2c0,0-3.8,2.6-6.8,8.4C82.6,111.4,79.3,123.7,79.3,123.7z"/>
					</g>
				</g>
			</g>
		</g>
	</g>
	<g id="_x3C_Mirror_Repeat_x3E__00000165947179608952619550000016763585039234230668_">
		<g>
			<g>
				<defs>
					<rect id="SVGID_00000084523284022370706300000003872794817273531574_" x="117.7" y="73.4" width="75.7" height="50.2"/>
				</defs>
				<clipPath id="SVGID_00000175306338570354502380000015143737302928979597_">
					<use xlink:href="#SVGID_00000084523284022370706300000003872794817273531574_"  style="overflow:visible;"/>
				</clipPath>
				
					<g id="_x3C_Mirror_Repeat_x3E__00000182502374586252356470000005471355620932504750_" style="clip-path:url(#SVGID_00000175306338570354502380000015143737302928979597_);">
					<g>
						<path class="st4" d="M130.7,123.7c0,0,19.4-14.5,19.8-15.9s-4.6-11.3-4.6-11.3s6.9-3.9,9.1-5.1s4.6-4.9,4.6-4.9
							s-0.9-2.3,11.6-2s22.2,4.6,22.2,4.6s-13.7-7.4-23.4-7c-2.9,0.1-9.3,0.3-11.9-1.6c-5.5-4.1-11.5-6.9-15.8-6.9
							c-6.1,0-9.8,6.5-9.8,6.5l-14.8,17.2c0,0,3.8,2.6,6.8,8.4C127.4,111.4,130.7,123.7,130.7,123.7z"/>
					</g>
				</g>
			</g>
		</g>
	</g>
</g>
<g id="KiwiBlueMid">
	<g>
		<path class="st6" d="M113,47.4"/>
		<path class="st6" d="M112.5,123.8"/>
		<path class="st6" d="M106.3,128.6"/>
		<path class="st0" d="M104,128.6c6.8-0.3,19.9-0.4,25.7-4.9c0.5-10.5-6.9-24.7-14.6-31.7c3.4-6,2.6-14.9-5.8-16.9l-4.8-28.4
			l-4.8,28.4c-8.5,2-9.2,10.9-5.8,16.9c-7.7,7.1-15.1,21.2-14.6,31.7C85.1,128.2,97.6,128.6,104,128.6z"/>
	</g>
</g>
</svg>
